<svg xmlns="http://www.w3.org/2000/svg" xmlns:xlink="http://www.w3.org/1999/xlink" contentStyleType="text/css" height="236px" preserveAspectRatio="none" style="width:617px;height:236px;background:#FFFFFF;" version="1.1" viewBox="0 0 617 236" width="617px" zoomAndPan="magnify"><defs/><g><!--entity s--><g id="elem_s"><ellipse cx="34.5557" cy="27.0659" fill="#F1F1F1" rx="8" ry="8" style="stroke:#181818;stroke-width:0.5;"/><path d="M34.5557,35.0659 L34.5557,62.0659 M21.5557,43.0659 L47.5557,43.0659 M34.5557,62.0659 L21.5557,77.0659 M34.5557,62.0659 L47.5557,77.0659 " fill="none" style="stroke:#181818;stroke-width:0.5;"/><text fill="#000000" font-family="sans-serif" font-size="14" lengthAdjust="spacing" textLength="55.1113" x="7" y="91.561">Student</text></g><!--entity t--><g id="elem_t"><ellipse cx="34.3418" cy="154.0659" fill="#F1F1F1" rx="8" ry="8" style="stroke:#181818;stroke-width:0.5;"/><path d="M34.3418,162.0659 L34.3418,189.0659 M21.3418,170.0659 L47.3418,170.0659 M34.3418,189.0659 L21.3418,204.0659 M34.3418,189.0659 L47.3418,204.0659 " fill="none" style="stroke:#181818;stroke-width:0.5;"/><text fill="#000000" font-family="sans-serif" font-size="14" lengthAdjust="spacing" textLength="56.6836" x="6" y="218.561">Teacher</text></g><!--entity Calculator--><g id="elem_Calculator"><rect fill="#FFFFFF" height="52.5938" style="stroke:#181818;stroke-width:0.5;" width="91.0938" x="196" y="93.0659"/><text fill="#000000" font-family="sans-serif" font-size="14" font-style="italic" lengthAdjust="spacing" textLength="69.4873" x="206.8032" y="116.061">&#171;System&#187;</text><text fill="#000000" font-family="sans-serif" font-size="14" lengthAdjust="spacing" textLength="71.0938" x="206" y="132.3579">Calculator</text></g><!--entity School_Server--><g id="elem_School_Server"><rect fill="#FFFFFF" height="52.5938" style="stroke:#181818;stroke-width:0.5;" width="119.3877" x="468" y="35.0659"/><text fill="#000000" font-family="sans-serif" font-size="14" font-style="italic" lengthAdjust="spacing" textLength="69.4873" x="492.9502" y="58.061">&#171;System&#187;</text><text fill="#000000" font-family="sans-serif" font-size="14" lengthAdjust="spacing" textLength="99.3877" x="478" y="74.3579">School_Server</text></g><!--entity School_Authorization--><g id="elem_School_Authorization"><rect fill="#FFFFFF" height="52.5938" style="stroke:#181818;stroke-width:0.5;" width="167.2461" x="444" y="151.0659"/><text fill="#000000" font-family="sans-serif" font-size="14" font-style="italic" lengthAdjust="spacing" textLength="69.4873" x="492.8794" y="174.061">&#171;System&#187;</text><text fill="#000000" font-family="sans-serif" font-size="14" lengthAdjust="spacing" textLength="147.2461" x="454" y="190.3579">School_Authorization</text></g><!--link s to Calculator--><g id="link_s_Calculator"><path d="M62.03,49.1959 C89.15,43.0459 132,37.2359 166,50.5659 C187.83,59.1259 203.1704,72.8731 216.6304,88.4731 " fill="none" id="s-to-Calculator" style="stroke:#181818;stroke-width:1.0;"/><polygon fill="#181818" points="220.55,93.0159,217.6991,83.5887,217.2837,89.2303,211.6421,88.8148,220.55,93.0159" style="stroke:#181818;stroke-width:1.0;"/><text fill="#000000" font-family="sans-serif" font-size="13" lengthAdjust="spacing" textLength="64.6953" x="97.4817" y="23.6328">Operation</text><text fill="#000000" font-family="sans-serif" font-size="13" lengthAdjust="spacing" textLength="71.6587" x="94" y="38.7656">commands</text></g><!--link s to Calculator--><g id="link_s_Calculator"><path d="M62.04,74.8059 C71.46,80.5859 82.38,86.5159 93,90.5659 C126.29,103.2459 160.0669,109.8314 189.9069,113.9714 " fill="none" id="s-to-Calculator-1" style="stroke:#181818;stroke-width:1.0;"/><polygon fill="#181818" points="195.85,114.7959,187.4851,109.5971,190.8974,114.1088,186.3857,117.5212,195.85,114.7959" style="stroke:#181818;stroke-width:1.0;"/><text fill="#000000" font-family="sans-serif" font-size="13" lengthAdjust="spacing" textLength="53.3901" x="103" y="71.6328">Request</text><text fill="#000000" font-family="sans-serif" font-size="13" lengthAdjust="spacing" textLength="43.8052" x="107.7925" y="86.7656">access</text></g><!--link t to Calculator--><g id="link_t_Calculator"><path d="M63.08,177.8259 C89.73,171.9959 131.07,162.1759 166,150.5659 C175.84,147.2959 180.6545,145.5924 190.4345,141.6024 " fill="none" id="t-to-Calculator" style="stroke:#181818;stroke-width:1.0;"/><polygon fill="#181818" points="195.99,139.3359,186.1458,139.032,191.3605,141.2247,189.1678,146.4393,195.99,139.3359" style="stroke:#181818;stroke-width:1.0;"/><text fill="#000000" font-family="sans-serif" font-size="13" lengthAdjust="spacing" textLength="64.6953" x="97.4817" y="131.6328">Operation</text><text fill="#000000" font-family="sans-serif" font-size="13" lengthAdjust="spacing" textLength="71.6587" x="94" y="146.7656">commands</text></g><!--link t to Calculator--><g id="link_t_Calculator"><path d="M63.19,199.0359 C90.47,212.0859 132.75,226.3159 166,210.5659 C193.86,197.3659 211.8027,173.2851 224.2627,151.4851 " fill="none" id="t-to-Calculator-1" style="stroke:#181818;stroke-width:1.0;"/><polygon fill="#181818" points="227.24,146.2759,219.3012,152.1048,224.7589,150.6169,226.2468,156.0746,227.24,146.2759" style="stroke:#181818;stroke-width:1.0;"/><text fill="#000000" font-family="sans-serif" font-size="13" lengthAdjust="spacing" textLength="54.3867" x="102.5" y="191.6328">Approve</text><text fill="#000000" font-family="sans-serif" font-size="13" lengthAdjust="spacing" textLength="49.7021" x="104.8423" y="206.7656">request</text></g><!--link Calculator to School_Server--><g id="link_Calculator_School_Server"><path d="M262.45,93.0159 C275.91,77.4159 295.17,59.1259 317,50.5659 C365.32,31.6259 418.8767,35.9982 462.0867,44.6482 " fill="none" id="Calculator-to-School_Server" style="stroke:#181818;stroke-width:1.0;"/><polygon fill="#181818" points="467.97,45.8259,459.9303,40.1371,463.0673,44.8445,458.3599,47.9815,467.97,45.8259" style="stroke:#181818;stroke-width:1.0;"/><text fill="#000000" font-family="sans-serif" font-size="13" lengthAdjust="spacing" textLength="64.6953" x="333.5" y="19.6328">Operation</text><text fill="#000000" font-family="sans-serif" font-size="13" lengthAdjust="spacing" textLength="43.8369" x="343.9292" y="34.7656">results</text></g><!--link School_Server to Calculator--><g id="link_School_Server_Calculator"><path d="M467.75,77.7159 C450.5,82.1859 431.56,86.8259 414,90.5659 C371.18,99.6859 327.7713,106.8808 293.0413,112.1808 " fill="none" id="School_Server-to-Calculator" style="stroke:#181818;stroke-width:1.0;"/><polygon fill="#181818" points="287.11,113.0859,296.6104,115.6824,292.0528,112.3316,295.4036,107.774,287.11,113.0859" style="stroke:#181818;stroke-width:1.0;"/><text fill="#000000" font-family="sans-serif" font-size="13" lengthAdjust="spacing" textLength="64.6953" x="333.5" y="71.6328">Operation</text><text fill="#000000" font-family="sans-serif" font-size="13" lengthAdjust="spacing" textLength="44.7129" x="343.4912" y="86.7656">history</text></g><!--link Calculator to School_Authorization--><g id="link_Calculator_School_Authorization"><path d="M287.25,138.9259 C296.92,142.5659 307.19,146.0159 317,148.5659 C358.13,159.2659 398.9382,165.54 437.8382,169.95 " fill="none" id="Calculator-to-School_Authorization" style="stroke:#181818;stroke-width:1.0;"/><polygon fill="#181818" points="443.8,170.6259,435.3079,165.6376,438.8318,170.0627,434.4067,173.5866,443.8,170.6259" style="stroke:#181818;stroke-width:1.0;"/><text fill="#000000" font-family="sans-serif" font-size="13" lengthAdjust="spacing" textLength="29.6309" x="351" y="129.6328">User</text><text fill="#000000" font-family="sans-serif" font-size="13" lengthAdjust="spacing" textLength="24.3813" x="353.6248" y="144.7656">info</text></g><!--link School_Authorization to Calculator--><g id="link_School_Authorization_Calculator"><path d="M464.25,204.0959 C421.12,218.3559 363.33,229.0459 317,207.5659 C289.94,195.0159 272.2367,172.405 259.5767,151.395 " fill="none" id="School_Authorization-to-Calculator" style="stroke:#181818;stroke-width:1.0;"/><polygon fill="#181818" points="256.48,146.2559,257.6989,156.0291,259.0606,150.5385,264.5511,151.9001,256.48,146.2559" style="stroke:#181818;stroke-width:1.0;"/><text fill="#000000" font-family="sans-serif" font-size="13" lengthAdjust="spacing" textLength="95.4307" x="318" y="188.6328">Authentication</text><text fill="#000000" font-family="sans-serif" font-size="13" lengthAdjust="spacing" textLength="37.064" x="347.1833" y="203.7656">result</text></g><!--SRC=[fLF1IiD04BtlLuovgA2W1oyYXTeMBqgbMn6X8EjcsYmcktLt8gtYlpkRjhQHH1HpQJepRzwRUPEz5AV68joEXhs1b0UBG_2eITbPZf0i4b015d1nSUkTnX0w7R6tHlIxuwuS3qU3LanVaPBaFEwWv8CS3svQ8N8P20kk5s8V-Yl8m98XW-48rYBYgx8fnFvG4GIXDF_odp95Ix7R9ZH6fJFqCKHYpPxqLAxBN74-EVmAIfqvbpzAzA_O4E-Mb3bltXGPPpdD0YKjSsDdC6MUBsr03fuGl2jjYga8pyREbLV5Tk2TRSAx07ukbNwULOYUoxdPVMO8gyne5VIMHpWz4n__ejrizq-i9v7q6-lEvYElnq8Pks7YnVfc_fs3Q95mRMOPNNbSjiW8S7pSWQrzvv0Cv-WhJoPMkwBWmmY9e5_MRIigGEq4wXWUjSof5LAx3aRU1VGJQ-pK9OsgH_XIOg29LJhwrwYuEvzxzugHkohcJari3K1EysTWT4rx8chZ_RYXp0IEBPannobL7aTd83NHJYxv1000]--></g></svg>